<?xml version="1.0" encoding="UTF-8" standalone="no"?>
<svg xmlns:rdf="http://www.w3.org/1999/02/22-rdf-syntax-ns#" xmlns="http://www.w3.org/2000/svg" height="270pt" width="283pt" version="1.1" xmlns:cc="http://creativecommons.org/ns#" xmlns:dc="http://purl.org/dc/elements/1.1/" viewBox="0 0 283 270">
<path fill="#010101" d="m26.07 3.78c26.3-1.49 52.82-3.91 79.22-2.02 48.62 1.75 98.01-5.07 146.1 4.8 9.06 3.39 17.56 8.56 25.35 14.26 2.15 50.48 4.52 101.09 4.83 151.57-4.63 21.14-5.17 42.75-6.66 64.24-5.36 8.24-11.51 16.13-17.45 24.03-20.86 0.48-41.57 5.19-62.46 2.54-19.83 1.33-39.57 5.04-59.45 5.22-35.96-7.63-74.12 6.09-108.98-8.01-4.54-1.71-9.98-3-12.48-7.55-12.77-19.2-13.97-43.57-11.4-65.78-3.4-17.04 3.73-33.61 3.77-50.64-0.35-22.13 3.76-44.51-0.59-66.44-3.12-23.45 3.22-49.19 20.2-66.22m13.64 12.9c-8.96 2.57-11.8 12.29-16.67 19.1 1.44 32.6-4.41 64.84-4.81 97.39 17.07-9.34 26.32-28.57 42.39-39.57 24.11-15.44 46.12-35.19 73.69-44.37 24.86-3.94 49.92-6.68 74.85-10.18 22.38-4.26 40.25 12.82 59.09 21.7 1.89-12.81-2.36-24.56-6.84-36.17-48.75-15.76-100.26-8.24-150.47-9.56-23.71 1.38-47.92-4.95-71.23 1.66m123.05 35.1c-36.3 6.29-70.19 23.95-97.78 48.2-20.37 17.29-41.65 37.57-47.55 64.67-2.18 9.41 6.33 17.35 13.17 22.22 11.42-1.21 19.8-11.11 29.72-16.19 27.43-11.19 56.64-20.28 86.68-17.74 28.47-2.8 55.88 8.96 84.22 5.58 18.13-3.74 30.27-20.32 35.49-37.18-0.04-14.73 2.04-30.71-3.29-44.75-12.45-9.42-24.46-19.7-37.29-28.56-21.24-0.63-42.52-0.59-63.37 3.75m71.2 115.55c-44.09 5.36-88.12-14.39-132.11-4.44-23.55 3.09-42.08 18.79-63.41 27.59-0.79 6.09-0.52 12.25-0.37 18.38 8.24-0.41 14.61-6.52 21.52-10.26 18.33-15.14 42.43-23.04 66.17-21.64 29.51 1.02 58.27 10.84 87.99 7.85 18.3-1.77 39.62-0.7 54.17-14.02-0.43-8.63-0.95-17.26-2.01-25.83-7.32 11.5-21.23 15.02-31.95 22.37m-221.96 13.66c0.59 12.32 4.83 24.28 17.93 27.94 2.58-13.44-9.36-20.32-17.93-27.94m102.78 3.15c-25.59 1.26-46.94 18.13-68.65 29.98-10.4 6.04-22.88 5.22-33.93 1.74 1.17 7.79 2.34 16.37 7.22 22.79 38.39 23.3 85.61 12.17 127.96 16.03 25.93-0.99 52-1.35 77.79-4.61 16.26 0.45 34.64-5.82 40.89-22.14 3.88-14.91-0.07-30.17-1.29-45.13-48.7 16.49-100.31 7.74-149.99 1.34z"/>
<path fill="#ccfecb" d="m39.71 16.68c23.31-6.61 47.52-0.28 71.23-1.66 50.21 1.32 101.72-6.2 150.47 9.56 4.48 11.61 8.73 23.36 6.84 36.17-18.84-8.88-36.71-25.96-59.09-21.7-24.93 3.5-49.99 6.24-74.85 10.18-27.57 9.18-49.58 28.93-73.69 44.37-16.07 11-25.32 30.23-42.39 39.57 0.4-32.55 6.25-64.79 4.81-97.39 4.87-6.81 7.71-16.53 16.67-19.1m117.25 10.49c0.37 3.29 0.78 6.59 1.35 9.85 5.97 0.4 7.35-6.9 9.81-10.96-3.74-1.74-7.61-0.35-11.16 1.11m-120.15 14.68c0.91 1.63 2.72 4.88 3.63 6.5 5.86-1.93 13.35-13.68 5.56-17.66-3.73 3.12-6.41 7.22-9.19 11.16m34.71-3.43c-0.99 2.48-1.84 5.02-2.44 7.63 12.32 1.14 23.02-4.65 32.14-12.4-10.07-2.73-20.14 2.28-29.7 4.77m-3.9 20.18c-6.52 6.84-19.51 11.15-18.57 22.11 2.51-0.31 4.95-1.12 6.9-2.76 25.46-19.89 56.74-29.42 85.51-43.21-1.22-1-2.64-2.07-4.32-1.53-24.61 3.76-47.31 14.74-69.52 25.39z"/>
<path fill="#626634" d="m156.96 27.17c3.55-1.46 7.42-2.85 11.16-1.11-2.46 4.06-3.84 11.36-9.81 10.96-0.57-3.26-0.98-6.56-1.35-9.85z"/>
<path fill="#636535" d="m36.81 41.85c2.78-3.94 5.46-8.04 9.19-11.16 7.79 3.98 0.3 15.73-5.56 17.66-0.91-1.62-2.72-4.87-3.63-6.5z"/>
<path fill="#636633" d="m71.52 38.42c9.56-2.49 19.63-7.5 29.7-4.77-9.12 7.75-19.82 13.54-32.14 12.4 0.6-2.61 1.45-5.15 2.44-7.63z"/>
<path fill="#636633" d="m67.62 58.6c22.21-10.65 44.91-21.63 69.52-25.39 1.68-0.54 3.1 0.53 4.32 1.53-28.77 13.79-60.05 23.32-85.51 43.21-1.95 1.64-4.39 2.45-6.9 2.76-0.94-10.96 12.05-15.27 18.57-22.11z"/>
<path fill="#fa0101" d="m162.76 51.78c20.85-4.34 42.13-4.38 63.37-3.75 12.83 8.86 24.84 19.14 37.29 28.56 5.33 14.04 3.25 30.02 3.29 44.75-5.22 16.86-17.36 33.44-35.49 37.18-28.34 3.38-55.75-8.38-84.22-5.58-30.04-2.54-59.25 6.55-86.68 17.74-10.48 3.05-18.56 10.98-28.38 15.5-6.93-5.86-15.59-13.01-12.67-23.38 7.7-26.66 28.35-47.36 49.85-63.76 1.38 0.7 2.77 1.4 4.15 2.1-8.93 7.11-15.57 16.55-22.92 25.17-3.08 3.82-7.61 9.15-4.37 14.28 5.26 7.95 15.77 2.82 22.48-0.03 14.71-10.66 28.09-23.1 42.92-33.64 1.48 7.58 0.58 15.51 2.36 23 3.33 3.51 8.7 4.23 13.06 6.08 3.75-7.44 8.99-14.42 10.41-22.81 2.79-16.99 11.47-32.7 12.41-50.02-2.93-1.41-6.36-0.87-9.52-1.2-1.76-0.1-3.51-0.28-5.26-0.48 9.42-5.69 20.78-6.09 31.2-8.8-1.09-0.32-2.18-0.63-3.28-0.91m19.44 6.36c-5.94 2.75-9.27 10.19-6.86 16.36 13.69 3.42 28.02 4.12 41.41 8.72 8.66 4.03 18.15 8.57 27.68 4.32 2.1-7.09 3.41-18.71-5.18-21.9-17.06-9.8-38.07-13.95-57.05-7.5m-10.91 31.8c-1.06 3.55-1.88 7.17-2.35 10.84 0.7 0.08 2.1 0.24 2.8 0.32 2.22-2.72 4.46-5.43 6.59-8.22-2.1-1.5-4.49-2.51-7.04-2.94m31.75 8.01c0.13 2.94 0.24 5.86 0.41 8.81 4.08 1.12 6.11-2.97 7.94-5.81-2.8-0.98-5.52-2.15-8.35-3m35.17 12.04c-12.78 5.45-25.15 11.89-37.89 17.41-15.8 0.41-31.56-4.64-47.35-3.69-3.29 4.49-6.86 9.6-5.65 15.55 22.81 10.46 49.3 11.38 73.97 10.27 14.12-3.88 28.35-13.18 32.7-27.87 2.13-8.32-8.55-15.31-15.78-11.67m-190.91 57.79c1.62-0.07 4.84-0.19 6.45-0.26 0.37-3.59 0.1-7.32-2.87-9.72-3.18 2.12-2.71 6.64-3.58 9.98z"/>
<path fill="#f10505" d="m64.98 99.98c27.59-24.25 61.48-41.91 97.78-48.2 1.1 0.28 2.19 0.59 3.28 0.91-10.42 2.71-21.78 3.11-31.2 8.8 1.75 0.2 3.5 0.38 5.26 0.48-25.11 7.43-43.76 27.47-66.83 39.17-1.38-0.7-2.77-1.4-4.15-2.1-21.5 16.4-42.15 37.1-49.85 63.76-2.92 10.37 5.74 17.52 12.67 23.38 9.82-4.52 17.9-12.45 28.38-15.5-9.92 5.08-18.3 14.98-29.72 16.19-6.84-4.87-15.35-12.81-13.17-22.22 5.9-27.1 27.18-47.38 47.55-64.67z"/>
<path fill="#980203" d="m182.2 58.14c18.98-6.45 39.99-2.3 57.05 7.5 8.59 3.19 7.28 14.81 5.18 21.9-9.53 4.25-19.02-0.29-27.68-4.32-13.39-4.6-27.72-5.3-41.41-8.72-2.41-6.17 0.92-13.61 6.86-16.36m5.96 2.95c-1.53 2.24-3.1 4.45-4.68 6.66 8.4 7.94 20.81 4.36 30.66 9.06 8.3 3.44 16.11 8.92 25.72 6.11-0.64-3.75-1.04-8.11-3.96-10.84-13.93-9.61-31.76-8.01-47.74-10.99z"/>
<path fill="#fcfbfa" d="m188.16 61.09c15.98 2.98 33.81 1.38 47.74 10.99 2.92 2.73 3.32 7.09 3.96 10.84-9.61 2.81-17.42-2.67-25.72-6.11-9.85-4.7-22.26-1.12-30.66-9.06 1.58-2.21 3.15-4.42 4.68-6.66z"/>
<path fill="#980202" d="m140.1 61.97c3.16 0.33 6.59-0.21 9.52 1.2-0.94 17.32-9.62 33.03-12.41 50.02-1.42 8.39-6.66 15.37-10.41 22.81-4.36-1.85-9.73-2.57-13.06-6.08-1.78-7.49-0.88-15.42-2.36-23-14.83 10.54-28.21 22.98-42.92 33.64-6.71 2.85-17.22 7.98-22.48 0.03-3.24-5.13 1.29-10.46 4.37-14.28 7.35-8.62 13.99-18.06 22.92-25.17 23.07-11.7 41.72-31.74 66.83-39.17m-52.89 40.28c-15.68 4.77-22.91 20.66-32.03 32.92 18.07-11.5 35.79-23.99 52.05-38.04 3.52-2.46 7.83 0.3 11.62 0.77 2.11 8.09 0.89 16.56 1.27 24.81 2.27 0.45 4.53 0.91 6.81 1.32 3.78-18.01 10.38-35.46 12.19-53.86-19.53 6.7-35.47 20.2-51.91 32.08z"/>
<path fill="#fcfcfa" d="m87.21 102.25c16.44-11.88 32.38-25.38 51.91-32.08-1.81 18.4-8.41 35.85-12.19 53.86-2.28-0.41-4.54-0.87-6.81-1.32-0.38-8.25 0.84-16.72-1.27-24.81-3.79-0.47-8.1-3.23-11.62-0.77-16.26 14.05-33.98 26.54-52.05 38.04 9.12-12.26 16.35-28.15 32.03-32.92z"/>
<path fill="#fff2ef" d="m171.29 89.94c2.55 0.43 4.94 1.44 7.04 2.94-2.13 2.79-4.37 5.5-6.59 8.22-0.7-0.08-2.1-0.24-2.8-0.32 0.47-3.67 1.29-7.29 2.35-10.84z"/>
<path fill="#fdf2f0" d="m203.04 97.95c2.83 0.85 5.55 2.02 8.35 3-1.83 2.84-3.86 6.93-7.94 5.81-0.17-2.95-0.28-5.87-0.41-8.81z"/>
<path fill="#980202" d="m238.21 109.99c7.23-3.64 17.91 3.35 15.78 11.67-4.35 14.69-18.58 23.99-32.7 27.87-24.67 1.11-51.16 0.19-73.97-10.27-1.21-5.95 2.36-11.06 5.65-15.55 15.79-0.95 31.55 4.1 47.35 3.69 12.74-5.52 25.11-11.96 37.89-17.41m-39.12 25.14c-14.51-0.55-29.15-2.26-43.59 0.17 29.62 9.53 73.89 16.99 91.58-16-18.1-5.51-29.98 17.71-47.99 15.83z"/>
<path fill="#fcfbf9" d="m199.09 135.13c18.01 1.88 29.89-21.34 47.99-15.83-17.69 32.99-61.96 25.53-91.58 16 14.44-2.43 29.08-0.72 43.59-0.17z"/>
<path fill="#fefefd" d="m233.96 167.33c10.72-7.35 24.63-10.87 31.95-22.37 1.06 8.57 1.58 17.2 2.01 25.83-14.55 13.32-35.87 12.25-54.17 14.02-29.72 2.99-58.48-6.83-87.99-7.85-23.74-1.4-47.84 6.5-66.17 21.64-6.91 3.74-13.28 9.85-21.52 10.26-0.15-6.13-0.42-12.29 0.37-18.38 21.33-8.8 39.86-24.5 63.41-27.59 43.99-9.95 88.02 9.8 132.11 4.44z"/>
<path fill="#fff0ed" d="m47.3 167.78c0.87-3.34 0.4-7.86 3.58-9.98 2.97 2.4 3.24 6.13 2.87 9.72-1.61 0.07-4.83 0.19-6.45 0.26z"/>
<path fill="#fcfcfc" d="m12 180.99c8.57 7.62 20.51 14.5 17.93 27.94-13.1-3.66-17.34-15.62-17.93-27.94z"/>
<path fill="#ccfecb" d="m114.78 184.14c49.68 6.4 101.29 15.15 149.99-1.34 1.22 14.96 5.17 30.22 1.29 45.13-6.25 16.32-24.63 22.59-40.89 22.14-25.79 3.26-51.86 3.62-77.79 4.61-42.35-3.86-89.57 7.27-127.96-16.03-4.88-6.42-6.05-15-7.22-22.79 11.05 3.48 23.53 4.3 33.93-1.74 21.71-11.85 43.06-28.72 68.65-29.98m-32.77 39.64c2.69 1.04 5.39 2.07 8.08 3.14 39.97-25.1 86.87 8.1 129.3-6.08-6.99-12.48-23.53-4.58-34.72-7.34-34.12-4.16-73.33-13.16-102.66 10.28m158-7.6c1.1 3.2 2.05 9.49 6.59 8.6 3.29-3.67 5.44-8.23 7.47-12.69-5.19-2.77-9.74 1.75-14.06 4.09m-190.16 10.83c3.4 3.98 6.1 9.51 11.91 9.94 0.78-3.27 1.53-6.54 2.28-9.81-2.5-1.05-4.99-2.11-7.48-3.18-2.24 1.01-4.48 2.03-6.71 3.05m73.09 3.83c0.09 0.75 0.27 2.25 0.37 3.01 20.47-0.93 40.47 3.95 60.82 5.13 0.91-3-0.92-5.02-2.37-7.13-19.6-0.25-39.2-1.31-58.82-1.01z"/>
<path fill="#636633" d="m82.01 223.78c29.33-23.44 68.54-14.44 102.66-10.28 11.19 2.76 27.73-5.14 34.72 7.34-42.43 14.18-89.33-19.02-129.3 6.08-2.69-1.07-5.39-2.1-8.08-3.14z"/>
<path fill="#626634" d="m240.01 216.18c4.32-2.34 8.87-6.86 14.06-4.09-2.03 4.46-4.18 9.02-7.47 12.69-4.54 0.89-5.49-5.4-6.59-8.6z"/>
<path fill="#626633" d="m49.85 227.01c2.23-1.02 4.47-2.04 6.71-3.05 2.49 1.07 4.98 2.13 7.48 3.18-0.75 3.27-1.5 6.54-2.28 9.81-5.81-0.43-8.51-5.96-11.91-9.94z"/>
<path fill="#5f6734" d="m122.94 230.84c19.62-0.3 39.22 0.76 58.82 1.01 1.45 2.11 3.28 4.13 2.37 7.13-20.35-1.18-40.35-6.06-60.82-5.13-0.1-0.76-0.28-2.26-0.37-3.01z"/>
<path d="m26.07 3.78c26.3-1.49 52.82-3.91 79.22-2.02 48.62 1.75 98.01-5.07 146.1 4.8 9.06 3.39 17.56 8.56 25.35 14.26 2.15 50.48 4.52 101.09 4.83 151.57-4.63 21.14-5.17 42.75-6.66 64.24-5.36 8.24-11.51 16.13-17.45 24.03-20.86 0.48-41.57 5.19-62.46 2.54-19.83 1.33-39.57 5.04-59.45 5.22-35.96-7.63-74.12 6.09-108.98-8.01-4.54-1.71-9.98-3-12.48-7.55-12.77-19.2-13.97-43.57-11.4-65.78-3.4-17.04 3.73-33.61 3.77-50.64-0.35-22.13 3.76-44.51-0.59-66.44-3.12-23.45 3.22-49.19 20.2-66.22m13.64 12.9c-8.96 2.57-11.8 12.29-16.67 19.1 1.44 32.6-4.41 64.84-4.81 97.39 17.07-9.34 26.32-28.57 42.39-39.57 24.11-15.44 46.12-35.19 73.69-44.37 24.86-3.94 49.92-6.68 74.85-10.18 22.38-4.26 40.25 12.82 59.09 21.7 1.89-12.81-2.36-24.56-6.84-36.17-48.75-15.76-100.26-8.24-150.47-9.56-23.71 1.38-47.92-4.95-71.23 1.66m123.05 35.1c-36.3 6.29-70.19 23.95-97.78 48.2-20.37 17.29-41.65 37.57-47.55 64.67-2.18 9.41 6.33 17.35 13.17 22.22 11.42-1.21 19.8-11.11 29.72-16.19 27.43-11.19 56.64-20.28 86.68-17.74 28.47-2.8 55.88 8.96 84.22 5.58 18.13-3.74 30.27-20.32 35.49-37.18-0.04-14.73 2.04-30.71-3.29-44.75-12.45-9.42-24.46-19.7-37.29-28.56-21.24-0.63-42.52-0.59-63.37 3.75m71.2 115.55c-44.09 5.36-88.12-14.39-132.11-4.44-23.55 3.09-42.08 18.79-63.41 27.59-0.79 6.09-0.52 12.25-0.37 18.38 8.24-0.41 14.61-6.52 21.52-10.26 18.33-15.14 42.43-23.04 66.17-21.64 29.51 1.02 58.27 10.84 87.99 7.85 18.3-1.77 39.62-0.7 54.17-14.02-0.43-8.63-0.95-17.26-2.01-25.83-7.32 11.5-21.23 15.02-31.95 22.37m-221.96 13.66c0.59 12.32 4.83 24.28 17.93 27.94 2.58-13.44-9.36-20.32-17.93-27.94m102.78 3.15c-25.59 1.26-46.94 18.13-68.65 29.98-10.4 6.04-22.88 5.22-33.93 1.74 1.17 7.79 2.34 16.37 7.22 22.79 38.39 23.3 85.61 12.17 127.96 16.03 25.93-0.99 52-1.35 77.79-4.61 16.26 0.45 34.64-5.82 40.89-22.14 3.88-14.91-0.07-30.17-1.29-45.13-48.7 16.49-100.31 7.74-149.99 1.34z" fill="#010101"/>
<path d="m39.71 16.68c23.31-6.61 47.52-0.28 71.23-1.66 50.21 1.32 101.72-6.2 150.47 9.56 4.48 11.61 8.73 23.36 6.84 36.17-18.84-8.88-36.71-25.96-59.09-21.7-24.93 3.5-49.99 6.24-74.85 10.18-27.57 9.18-49.58 28.93-73.69 44.37-16.07 11-25.32 30.23-42.39 39.57 0.4-32.55 6.25-64.79 4.81-97.39 4.87-6.81 7.71-16.53 16.67-19.1m117.25 10.49c0.37 3.29 0.78 6.59 1.35 9.85 5.97 0.4 7.35-6.9 9.81-10.96-3.74-1.74-7.61-0.35-11.16 1.11m-120.15 14.68c0.91 1.63 2.72 4.88 3.63 6.5 5.86-1.93 13.35-13.68 5.56-17.66-3.73 3.12-6.41 7.22-9.19 11.16m34.71-3.43c-0.99 2.48-1.84 5.02-2.44 7.63 12.32 1.14 23.02-4.65 32.14-12.4-10.07-2.73-20.14 2.28-29.7 4.77m-3.9 20.18c-6.52 6.84-19.51 11.15-18.57 22.11 2.51-0.31 4.95-1.12 6.9-2.76 25.46-19.89 56.74-29.42 85.51-43.21-1.22-1-2.64-2.07-4.32-1.53-24.61 3.76-47.31 14.74-69.52 25.39z" fill="#ccfecb"/>
<path d="m156.96 27.17c3.55-1.46 7.42-2.85 11.16-1.11-2.46 4.06-3.84 11.36-9.81 10.96-0.57-3.26-0.98-6.56-1.35-9.85z" fill="#626634"/>
<path d="m36.81 41.85c2.78-3.94 5.46-8.04 9.19-11.16 7.79 3.98 0.3 15.73-5.56 17.66-0.91-1.62-2.72-4.87-3.63-6.5z" fill="#636535"/>
<path d="m71.52 38.42c9.56-2.49 19.63-7.5 29.7-4.77-9.12 7.75-19.82 13.54-32.14 12.4 0.6-2.61 1.45-5.15 2.44-7.63z" fill="#636633"/>
<path d="m67.62 58.6c22.21-10.65 44.91-21.63 69.52-25.39 1.68-0.54 3.1 0.53 4.32 1.53-28.77 13.79-60.05 23.32-85.51 43.21-1.95 1.64-4.39 2.45-6.9 2.76-0.94-10.96 12.05-15.27 18.57-22.11z" fill="#636633"/>
<path d="m162.76 51.78c20.85-4.34 42.13-4.38 63.37-3.75 12.83 8.86 24.84 19.14 37.29 28.56 5.33 14.04 3.25 30.02 3.29 44.75-5.22 16.86-17.36 33.44-35.49 37.18-28.34 3.38-55.75-8.38-84.22-5.58-30.04-2.54-59.25 6.55-86.68 17.74-10.48 3.05-18.56 10.98-28.38 15.5-6.93-5.86-15.59-13.01-12.67-23.38 7.7-26.66 28.35-47.36 49.85-63.76 1.38 0.7 2.77 1.4 4.15 2.1-8.93 7.11-15.57 16.55-22.92 25.17-3.08 3.82-7.61 9.15-4.37 14.28 5.26 7.95 15.77 2.82 22.48-0.03 14.71-10.66 28.09-23.1 42.92-33.64 1.48 7.58 0.58 15.51 2.36 23 3.33 3.51 8.7 4.23 13.06 6.08 3.75-7.44 8.99-14.42 10.41-22.81 2.79-16.99 11.47-32.7 12.41-50.02-2.93-1.41-6.36-0.87-9.52-1.2-1.76-0.1-3.51-0.28-5.26-0.48 9.42-5.69 20.78-6.09 31.2-8.8-1.09-0.32-2.18-0.63-3.28-0.91m19.44 6.36c-5.94 2.75-9.27 10.19-6.86 16.36 13.69 3.42 28.02 4.12 41.41 8.72 8.66 4.03 18.15 8.57 27.68 4.32 2.1-7.09 3.41-18.71-5.18-21.9-17.06-9.8-38.07-13.95-57.05-7.5m-10.91 31.8c-1.06 3.55-1.88 7.17-2.35 10.84 0.7 0.08 2.1 0.24 2.8 0.32 2.22-2.72 4.46-5.43 6.59-8.22-2.1-1.5-4.49-2.51-7.04-2.94m31.75 8.01c0.13 2.94 0.24 5.86 0.41 8.81 4.08 1.12 6.11-2.97 7.94-5.81-2.8-0.98-5.52-2.15-8.35-3m35.17 12.04c-12.78 5.45-25.15 11.89-37.89 17.41-15.8 0.41-31.56-4.64-47.35-3.69-3.29 4.49-6.86 9.6-5.65 15.55 22.81 10.46 49.3 11.38 73.97 10.27 14.12-3.88 28.35-13.18 32.7-27.87 2.13-8.32-8.55-15.31-15.78-11.67m-190.91 57.79c1.62-0.07 4.84-0.19 6.45-0.26 0.37-3.59 0.1-7.32-2.87-9.72-3.18 2.12-2.71 6.64-3.58 9.98z" fill="#fa0101"/>
<path d="m64.98 99.98c27.59-24.25 61.48-41.91 97.78-48.2 1.1 0.28 2.19 0.59 3.28 0.91-10.42 2.71-21.78 3.11-31.2 8.8 1.75 0.2 3.5 0.38 5.26 0.48-25.11 7.43-43.76 27.47-66.83 39.17-1.38-0.7-2.77-1.4-4.15-2.1-21.5 16.4-42.15 37.1-49.85 63.76-2.92 10.37 5.74 17.52 12.67 23.38 9.82-4.52 17.9-12.45 28.38-15.5-9.92 5.08-18.3 14.98-29.72 16.19-6.84-4.87-15.35-12.81-13.17-22.22 5.9-27.1 27.18-47.38 47.55-64.67z" fill="#f10505"/>
<path d="m182.2 58.14c18.98-6.45 39.99-2.3 57.05 7.5 8.59 3.19 7.28 14.81 5.18 21.9-9.53 4.25-19.02-0.29-27.68-4.32-13.39-4.6-27.72-5.3-41.41-8.72-2.41-6.17 0.92-13.61 6.86-16.36m5.96 2.95c-1.53 2.24-3.1 4.45-4.68 6.66 8.4 7.94 20.81 4.36 30.66 9.06 8.3 3.44 16.11 8.92 25.72 6.11-0.64-3.75-1.04-8.11-3.96-10.84-13.93-9.61-31.76-8.01-47.74-10.99z" fill="#980203"/>
<path d="m188.16 61.09c15.98 2.98 33.81 1.38 47.74 10.99 2.92 2.73 3.32 7.09 3.96 10.84-9.61 2.81-17.42-2.67-25.72-6.11-9.85-4.7-22.26-1.12-30.66-9.06 1.58-2.21 3.15-4.42 4.68-6.66z" fill="#fcfbfa"/>
<path d="m140.1 61.97c3.16 0.33 6.59-0.21 9.52 1.2-0.94 17.32-9.62 33.03-12.41 50.02-1.42 8.39-6.66 15.37-10.41 22.81-4.36-1.85-9.73-2.57-13.06-6.08-1.78-7.49-0.88-15.42-2.36-23-14.83 10.54-28.21 22.98-42.92 33.64-6.71 2.85-17.22 7.98-22.48 0.03-3.24-5.13 1.29-10.46 4.37-14.28 7.35-8.62 13.99-18.06 22.92-25.17 23.07-11.7 41.72-31.74 66.83-39.17m-52.89 40.28c-15.68 4.77-22.91 20.66-32.03 32.92 18.07-11.5 35.79-23.99 52.05-38.04 3.52-2.46 7.83 0.3 11.62 0.77 2.11 8.09 0.89 16.56 1.27 24.81 2.27 0.45 4.53 0.91 6.81 1.32 3.78-18.01 10.38-35.46 12.19-53.86-19.53 6.7-35.47 20.2-51.91 32.08z" fill="#980202"/>
<path d="m87.21 102.25c16.44-11.88 32.38-25.38 51.91-32.08-1.81 18.4-8.41 35.85-12.19 53.86-2.28-0.41-4.54-0.87-6.81-1.32-0.38-8.25 0.84-16.72-1.27-24.81-3.79-0.47-8.1-3.23-11.62-0.77-16.26 14.05-33.98 26.54-52.05 38.04 9.12-12.26 16.35-28.15 32.03-32.92z" fill="#fcfcfa"/>
<path d="m171.29 89.94c2.55 0.43 4.94 1.44 7.04 2.94-2.13 2.79-4.37 5.5-6.59 8.22-0.7-0.08-2.1-0.24-2.8-0.32 0.47-3.67 1.29-7.29 2.35-10.84z" fill="#fff2ef"/>
<path d="m203.04 97.95c2.83 0.85 5.55 2.02 8.35 3-1.83 2.84-3.86 6.93-7.94 5.81-0.17-2.95-0.28-5.87-0.41-8.81z" fill="#fdf2f0"/>
<path d="m238.21 109.99c7.23-3.64 17.91 3.35 15.78 11.67-4.35 14.69-18.58 23.99-32.7 27.87-24.67 1.11-51.16 0.19-73.97-10.27-1.21-5.95 2.36-11.06 5.65-15.55 15.79-0.95 31.55 4.1 47.35 3.69 12.74-5.52 25.11-11.96 37.89-17.41m-39.12 25.14c-14.51-0.55-29.15-2.26-43.59 0.17 29.62 9.53 73.89 16.99 91.58-16-18.1-5.51-29.98 17.71-47.99 15.83z" fill="#980202"/>
<path d="m199.09 135.13c18.01 1.88 29.89-21.34 47.99-15.83-17.69 32.99-61.96 25.53-91.58 16 14.44-2.43 29.08-0.72 43.59-0.17z" fill="#fcfbf9"/>
<path d="m233.96 167.33c10.72-7.35 24.63-10.87 31.95-22.37 1.06 8.57 1.58 17.2 2.01 25.83-14.55 13.32-35.87 12.25-54.17 14.02-29.72 2.99-58.48-6.83-87.99-7.85-23.74-1.4-47.84 6.5-66.17 21.64-6.91 3.74-13.28 9.85-21.52 10.26-0.15-6.13-0.42-12.29 0.37-18.38 21.33-8.8 39.86-24.5 63.41-27.59 43.99-9.95 88.02 9.8 132.11 4.44z" fill="#fefefd"/>
<path d="m47.3 167.78c0.87-3.34 0.4-7.86 3.58-9.98 2.97 2.4 3.24 6.13 2.87 9.72-1.61 0.07-4.83 0.19-6.45 0.26z" fill="#fff0ed"/>
<path d="m12 180.99c8.57 7.62 20.51 14.5 17.93 27.94-13.1-3.66-17.34-15.62-17.93-27.94z" fill="#fcfcfc"/>
<path d="m114.78 184.14c49.68 6.4 101.29 15.15 149.99-1.34 1.22 14.96 5.17 30.22 1.29 45.13-6.25 16.32-24.63 22.59-40.89 22.14-25.79 3.26-51.86 3.62-77.79 4.61-42.35-3.86-89.57 7.27-127.96-16.03-4.88-6.42-6.05-15-7.22-22.79 11.05 3.48 23.53 4.3 33.93-1.74 21.71-11.85 43.06-28.72 68.65-29.98m-32.77 39.64c2.69 1.04 5.39 2.07 8.08 3.14 39.97-25.1 86.87 8.1 129.3-6.08-6.99-12.48-23.53-4.58-34.72-7.34-34.12-4.16-73.33-13.16-102.66 10.28m158-7.6c1.1 3.2 2.05 9.49 6.59 8.6 3.29-3.67 5.44-8.23 7.47-12.69-5.19-2.77-9.74 1.75-14.06 4.09m-190.16 10.83c3.4 3.98 6.1 9.51 11.91 9.94 0.78-3.27 1.53-6.54 2.28-9.81-2.5-1.05-4.99-2.11-7.48-3.18-2.24 1.01-4.48 2.03-6.71 3.05m73.09 3.83c0.09 0.75 0.27 2.25 0.37 3.01 20.47-0.93 40.47 3.95 60.82 5.13 0.91-3-0.92-5.02-2.37-7.13-19.6-0.25-39.2-1.31-58.82-1.01z" fill="#ccfecb"/>
<path d="m82.01 223.78c29.33-23.44 68.54-14.44 102.66-10.28 11.19 2.76 27.73-5.14 34.72 7.34-42.43 14.18-89.33-19.02-129.3 6.08-2.69-1.07-5.39-2.1-8.08-3.14z" fill="#636633"/>
<path d="m240.01 216.18c4.32-2.34 8.87-6.86 14.06-4.09-2.03 4.46-4.18 9.02-7.47 12.69-4.54 0.89-5.49-5.4-6.59-8.6z" fill="#626634"/>
<path d="m49.85 227.01c2.23-1.02 4.47-2.04 6.71-3.05 2.49 1.07 4.98 2.13 7.48 3.18-0.75 3.27-1.5 6.54-2.28 9.81-5.81-0.43-8.51-5.96-11.91-9.94z" fill="#626633"/>
<path d="m122.94 230.84c19.62-0.3 39.22 0.76 58.82 1.01 1.45 2.11 3.28 4.13 2.37 7.13-20.35-1.18-40.35-6.06-60.82-5.13-0.1-0.76-0.28-2.26-0.37-3.01z" fill="#5f6734"/>
</svg>
