<?xml version="1.0" encoding="UTF-8" standalone="no"?>
<svg
   xmlns:dc="http://purl.org/dc/elements/1.1/"
   xmlns:cc="http://creativecommons.org/ns#"
   xmlns:rdf="http://www.w3.org/1999/02/22-rdf-syntax-ns#"
   xmlns:svg="http://www.w3.org/2000/svg"
   xmlns="http://www.w3.org/2000/svg"
   xmlns:sodipodi="http://sodipodi.sourceforge.net/DTD/sodipodi-0.dtd"
   xmlns:inkscape="http://www.inkscape.org/namespaces/inkscape"
   id="svg2"
   viewBox="0 0 736.85 565.79"
   version="1.1"
   sodipodi:docname="sunbathing.svg"
   inkscape:version="0.92.4 (5da689c313, 2019-01-14)">
  <defs
     id="defs109" />
  <sodipodi:namedview
     pagecolor="#ffffff"
     bordercolor="#666666"
     borderopacity="1"
     objecttolerance="10"
     gridtolerance="10"
     guidetolerance="10"
     inkscape:pageopacity="0"
     inkscape:pageshadow="2"
     inkscape:window-width="1920"
     inkscape:window-height="1017"
     id="namedview107"
     showgrid="false"
     inkscape:zoom="0.38949584"
     inkscape:cx="368.42499"
     inkscape:cy="282.89499"
     inkscape:window-x="-8"
     inkscape:window-y="-8"
     inkscape:window-maximized="1"
     inkscape:current-layer="svg2" />
  <g
     transform="matrix(0.45451,-0.075829,0.069109,0.41424,163.92,-5.54)"
     id="g3886">
    <path
       style="fill:#b6642c"
       inkscape:connector-curvature="0"
       d="m -343.78,1158 41.066,-113.95 67.079,-129.67 38.386,-155.56 10.102,-260.62 12.122,-2.0203 v 125.26 l 2.0203,147.48 -50.508,175.77 c 0,0 -66.67,125.26 -66.67,133.34 0,8.0813 -54.606,162.67 -54.606,162.67 l -23.53,-15.936 z"
       id="path3888" />
    <g
       transform="matrix(0.75983,0,0,0.73969,-38.743,142.9)"
       id="g3890">
      <path
         style="fill:#007000"
         inkscape:connector-curvature="0"
         d="m -218.68,536.83 35.515,-44.904 84.125,-146.44 76.139,-34.997 -26.408,68.69 -122.78,115.45 -39.415,48.822 z"
         id="path3892" />
      <path
         style="fill:#005500"
         inkscape:connector-curvature="0"
         d="m -198.97,510.12 199.77,29.686 34.177,15.875 -52.253,2.4611 z"
         id="path3894" />
      <path
         style="fill:#008000"
         inkscape:connector-curvature="0"
         d="m -174.57,562.59 -10.983,-54.001 -54.375,-163.69 19.813,-61.073 33.148,71.667 9.8139,151.17 11.472,59.027 z"
         id="path3896" />
      <path
         style="fill:#008000"
         inkscape:connector-curvature="0"
         d="m -175.94,534.14 -37.375,-37.341 -132.48,-99.63 -12.936,-62.962 66.504,37.613 85.578,117.99 40.369,41.159 z"
         id="path3898" />
      <path
         style="fill:#006e00"
         inkscape:connector-curvature="0"
         d="m -192.17,559.09 -18.168,-60.151 -80.792,-175.95 18.775,-77.783 46.768,74.209 25.325,174.72 19.209,65.911 z"
         id="path3900" />
      <path
         style="fill:#009000"
         inkscape:connector-curvature="0"
         d="m -201.19,545.8 8.6716,-61.293 0.44774,-188.18 49.31,-65.668 11.251,83.448 -49.926,169.21 -10.132,66.937 z"
         id="path3902" />
      <path
         style="fill:#008000"
         inkscape:connector-curvature="0"
         d="m -207.36,547.88 24.069,-60.161 57.04,-190.66 51.561,-55.354 -17.921,87.151 -83.183,160.17 -26.712,65.551 z"
         id="path3904" />
      <path
         style="fill:#004100"
         inkscape:connector-curvature="0"
         d="m -156.32,508.58 -220.42,15.842 -40.351,18.03 55.153,10.366 z"
         id="path3906" />
      <path
         style="fill:#005500"
         inkscape:connector-curvature="0"
         d="m -171.69,488.72 -34.163,194.5 10.271,39.139 24.2,-45.322 z"
         id="path3908" />
      <path
         style="fill:#002d00"
         inkscape:connector-curvature="0"
         d="m -174.35,502.02 -93.71,178.32 -2.3908,40.136 37.432,-37.52 z"
         id="path3910" />
      <path
         style="fill:#005500"
         inkscape:connector-curvature="0"
         d="m -181.93,496.63 83.448,182.31 31.48,28.811 -5.5328,-49.94 z"
         id="path3912" />
      <path
         style="fill:#004100"
         inkscape:connector-curvature="0"
         d="m -190.8,498.42 157.54,138.16 41.696,15.4 -27.235,-43.93 z"
         id="path3914" />
      <path
         style="fill:#004100"
         inkscape:connector-curvature="0"
         d="m -173.06,495.26 -171.04,124.79 -21.63,35.28 51.965,-19.446 z"
         id="path3916" />
      <path
         style="fill:#005500"
         inkscape:connector-curvature="0"
         d="m -213.78,503.73 189.69,-24.65 35.043,7.4825 -47.165,17.529 z"
         id="path3918" />
      <path
         style="fill:#005500"
         inkscape:connector-curvature="0"
         d="m -175.16,489.93 -197.65,79.862 -32.553,31.015 52.893,-4.4537 z"
         id="path3920" />
      <path
         style="fill:#003a00"
         inkscape:connector-curvature="0"
         d="m -193.97,472.77 15.435,220.49 18.776,39.492 11.245,-55.997 z"
         id="path3922" />
      <path
         style="fill:#005500"
         inkscape:connector-curvature="0"
         d="m -193.22,487.95 -42.87,219.89 7.4428,44.174 25.21,-51.306 z"
         id="path3924" />
      <path
         style="fill:#005500"
         inkscape:connector-curvature="0"
         d="m -201.44,484.26 120,173.83 35.681,22.268 -17.036,-52.544 z"
         id="path3926" />
      <path
         style="fill:#004100"
         inkscape:connector-curvature="0"
         d="M -209.12,488.73 -32,593.64 l 41.807,4.8303 -35.431,-39.865 z"
         id="path3928" />
      <path
         style="fill:#005500"
         inkscape:connector-curvature="0"
         d="m -193.66,480.25 -126.38,183.88 -11.306,44.383 42.827,-35.853 z"
         id="path3930" />
    </g>
  </g>
  <g
     transform="matrix(0.51912,0,0,0.55389,288.93,-172.2)"
     id="g3862">
    <path
       style="fill:#b6642c"
       inkscape:connector-curvature="0"
       d="m -336.91,1218 44.53,-156.28 60.526,-150.81 38.386,-155.56 10.102,-260.62 12.122,-2.0203 v 125.26 l 2.0203,147.48 -50.508,175.77 c 0,0 -52.728,121.34 -52.728,129.42 0,8.0812 -20.003,161.5 -20.003,161.5 l -44.447,-4.0406 z"
       id="path3798" />
    <g
       transform="matrix(0.75983,0,0,0.73969,-38.743,142.9)"
       id="g3840">
      <path
         style="fill:#007000"
         inkscape:connector-curvature="0"
         d="m -218.68,536.83 35.515,-44.904 84.125,-146.44 76.139,-34.997 -26.408,68.69 -122.78,115.45 -39.415,48.822 z"
         id="path3800" />
      <path
         style="fill:#005500"
         inkscape:connector-curvature="0"
         d="m -198.97,510.12 199.77,29.686 34.177,15.875 -52.253,2.4611 z"
         id="path3802" />
      <path
         style="fill:#008000"
         inkscape:connector-curvature="0"
         d="m -174.57,562.59 -10.983,-54.001 -54.375,-163.69 19.813,-61.073 33.148,71.667 9.8139,151.17 11.472,59.027 z"
         id="path3804" />
      <path
         style="fill:#008000"
         inkscape:connector-curvature="0"
         d="m -175.94,534.14 -37.375,-37.341 -132.48,-99.63 -12.936,-62.962 66.504,37.613 85.578,117.99 40.369,41.159 z"
         id="path3806" />
      <path
         style="fill:#006e00"
         inkscape:connector-curvature="0"
         d="m -192.17,559.09 -18.168,-60.151 -80.792,-175.95 18.775,-77.783 46.768,74.209 25.325,174.72 19.209,65.911 z"
         id="path3808" />
      <path
         style="fill:#009000"
         inkscape:connector-curvature="0"
         d="m -201.19,545.8 8.6716,-61.293 0.44774,-188.18 49.31,-65.668 11.251,83.448 -49.926,169.21 -10.132,66.937 z"
         id="path3810" />
      <path
         style="fill:#008000"
         inkscape:connector-curvature="0"
         d="m -207.36,547.88 24.069,-60.161 57.04,-190.66 51.561,-55.354 -17.921,87.151 -83.183,160.17 -26.712,65.551 z"
         id="path3812" />
      <path
         style="fill:#004100"
         inkscape:connector-curvature="0"
         d="m -156.32,508.58 -220.42,15.842 -40.351,18.03 55.153,10.366 z"
         id="path3814" />
      <path
         style="fill:#005500"
         inkscape:connector-curvature="0"
         d="m -171.69,488.72 -34.163,194.5 10.271,39.139 24.2,-45.322 z"
         id="path3816" />
      <path
         style="fill:#002d00"
         inkscape:connector-curvature="0"
         d="m -174.35,502.02 -93.71,178.32 -2.3908,40.136 37.432,-37.52 z"
         id="path3818" />
      <path
         style="fill:#005500"
         inkscape:connector-curvature="0"
         d="m -181.93,496.63 83.448,182.31 31.48,28.811 -5.5328,-49.94 z"
         id="path3820" />
      <path
         style="fill:#004100"
         inkscape:connector-curvature="0"
         d="m -190.8,498.42 157.54,138.16 41.696,15.4 -27.235,-43.93 z"
         id="path3822" />
      <path
         style="fill:#004100"
         inkscape:connector-curvature="0"
         d="m -173.06,495.26 -171.04,124.79 -21.63,35.28 51.965,-19.446 z"
         id="path3824" />
      <path
         style="fill:#005500"
         inkscape:connector-curvature="0"
         d="m -213.78,503.73 189.69,-24.65 35.043,7.4825 -47.165,17.529 z"
         id="path3826" />
      <path
         style="fill:#005500"
         inkscape:connector-curvature="0"
         d="m -175.16,489.93 -197.65,79.862 -32.553,31.015 52.893,-4.4537 z"
         id="path3828" />
      <path
         style="fill:#003a00"
         inkscape:connector-curvature="0"
         d="m -193.97,472.77 15.435,220.49 18.776,39.492 11.245,-55.997 z"
         id="path3830" />
      <path
         style="fill:#005500"
         inkscape:connector-curvature="0"
         d="m -193.22,487.95 -42.87,219.89 7.4428,44.174 25.21,-51.306 z"
         id="path3832" />
      <path
         style="fill:#005500"
         inkscape:connector-curvature="0"
         d="m -201.44,484.26 120,173.83 35.681,22.268 -17.036,-52.544 z"
         id="path3834" />
      <path
         style="fill:#004100"
         inkscape:connector-curvature="0"
         d="M -209.12,488.73 -32,593.64 l 41.807,4.8303 -35.431,-39.865 z"
         id="path3836" />
      <path
         style="fill:#005500"
         inkscape:connector-curvature="0"
         d="m -193.66,480.25 -126.38,183.88 -11.306,44.383 42.827,-35.853 z"
         id="path3838" />
    </g>
  </g>
  <g
     transform="matrix(0.49222,0,-0.039802,0.47196,395.61,-75.59)"
     id="g3932">
    <path
       style="fill:#b6642c"
       inkscape:connector-curvature="0"
       d="m -338.16,1224.3 49.381,-203.59 55.675,-103.5 38.386,-155.56 10.102,-260.62 12.122,-2.0203 v 125.26 l 2.0203,147.48 -50.508,175.77 c 0,0 -45.89,73.12 -45.89,81.201 0,8.0812 -26.841,209.72 -26.841,209.72 l -44.447,-4.0406 z"
       id="path3934" />
    <g
       transform="matrix(0.75983,0,0,0.73969,-38.743,142.9)"
       id="g3936">
      <path
         style="fill:#007000"
         inkscape:connector-curvature="0"
         d="m -218.68,536.83 35.515,-44.904 84.125,-146.44 76.139,-34.997 -26.408,68.69 -122.78,115.45 -39.415,48.822 z"
         id="path3938" />
      <path
         style="fill:#005500"
         inkscape:connector-curvature="0"
         d="m -198.97,510.12 199.77,29.686 34.177,15.875 -52.253,2.4611 z"
         id="path3940" />
      <path
         style="fill:#008000"
         inkscape:connector-curvature="0"
         d="m -174.57,562.59 -10.983,-54.001 -54.375,-163.69 19.813,-61.073 33.148,71.667 9.8139,151.17 11.472,59.027 z"
         id="path3942" />
      <path
         style="fill:#008000"
         inkscape:connector-curvature="0"
         d="m -175.94,534.14 -37.375,-37.341 -132.48,-99.63 -12.936,-62.962 66.504,37.613 85.578,117.99 40.369,41.159 z"
         id="path3944" />
      <path
         style="fill:#006e00"
         inkscape:connector-curvature="0"
         d="m -192.17,559.09 -18.168,-60.151 -80.792,-175.95 18.775,-77.783 46.768,74.209 25.325,174.72 19.209,65.911 z"
         id="path3946" />
      <path
         style="fill:#009000"
         inkscape:connector-curvature="0"
         d="m -201.19,545.8 8.6716,-61.293 0.44774,-188.18 49.31,-65.668 11.251,83.448 -49.926,169.21 -10.132,66.937 z"
         id="path3948" />
      <path
         style="fill:#008000"
         inkscape:connector-curvature="0"
         d="m -207.36,547.88 24.069,-60.161 57.04,-190.66 51.561,-55.354 -17.921,87.151 -83.183,160.17 -26.712,65.551 z"
         id="path3950" />
      <path
         style="fill:#004100"
         inkscape:connector-curvature="0"
         d="m -156.32,508.58 -220.42,15.842 -40.351,18.03 55.153,10.366 z"
         id="path3952" />
      <path
         style="fill:#005500"
         inkscape:connector-curvature="0"
         d="m -171.69,488.72 -34.163,194.5 10.271,39.139 24.2,-45.322 z"
         id="path3954" />
      <path
         style="fill:#002d00"
         inkscape:connector-curvature="0"
         d="m -174.35,502.02 -93.71,178.32 -2.3908,40.136 37.432,-37.52 z"
         id="path3956" />
      <path
         style="fill:#005500"
         inkscape:connector-curvature="0"
         d="m -181.93,496.63 83.448,182.31 31.48,28.811 -5.5328,-49.94 z"
         id="path3958" />
      <path
         style="fill:#004100"
         inkscape:connector-curvature="0"
         d="m -190.8,498.42 157.54,138.16 41.696,15.4 -27.235,-43.93 z"
         id="path3960" />
      <path
         style="fill:#004100"
         inkscape:connector-curvature="0"
         d="m -173.06,495.26 -171.04,124.79 -21.63,35.28 51.965,-19.446 z"
         id="path3962" />
      <path
         style="fill:#005500"
         inkscape:connector-curvature="0"
         d="m -213.78,503.73 189.69,-24.65 35.043,7.4825 -47.165,17.529 z"
         id="path3964" />
      <path
         style="fill:#005500"
         inkscape:connector-curvature="0"
         d="m -175.16,489.93 -197.65,79.862 -32.553,31.015 52.893,-4.4537 z"
         id="path3966" />
      <path
         style="fill:#003a00"
         inkscape:connector-curvature="0"
         d="m -193.97,472.77 15.435,220.49 18.776,39.492 11.245,-55.997 z"
         id="path3968" />
      <path
         style="fill:#005500"
         inkscape:connector-curvature="0"
         d="m -193.22,487.95 -42.87,219.89 7.4428,44.174 25.21,-51.306 z"
         id="path3970" />
      <path
         style="fill:#005500"
         inkscape:connector-curvature="0"
         d="m -201.44,484.26 120,173.83 35.681,22.268 -17.036,-52.544 z"
         id="path3972" />
      <path
         style="fill:#004100"
         inkscape:connector-curvature="0"
         d="M -209.12,488.73 -32,593.64 l 41.807,4.8303 -35.431,-39.865 z"
         id="path3974" />
      <path
         style="fill:#005500"
         inkscape:connector-curvature="0"
         d="m -193.66,480.25 -126.38,183.88 -11.306,44.383 42.827,-35.853 z"
         id="path3976" />
    </g>
  </g>
  <path
     style="fill:#d9af7f"
     inkscape:connector-curvature="0"
     d="m 573.63,325.67 51.693,-20.456 40.387,-0.4541 34.581,-14.156 36.353,-4.1133 0.20763,279.16 h -736.85 l 14.006,-47.018 31.638,-9.9236 51.949,-4.1203 19.236,-2.8949 29.593,-23.16 20.715,-2.8949 28.113,-17.37 8.878,-1.4476 23.238,-11.316 30.252,-3.2161 28.021,-8.1279 12.032,-9.2118 21.449,-2.5588 13.078,-4.6059 12.032,-6.653 18.833,0.5118 9.9396,-5.6294 14.125,-5.1177 10.986,-2.5588 69.577,-26.612 73.762,-39.918 z"
     id="path3785" />
  <path
     style="fill:#d8ac7a"
     inkscape:connector-curvature="0"
     d="m 573.63,368.67 51.693,-16.792 40.387,-0.3728 34.581,-11.62 36.353,-3.3765 0.20763,229.16 h -736.85 l 14.006,-38.596 31.638,-8.1461 51.949,-3.3823 19.236,-2.3764 29.593,-19.011 20.715,-2.3764 28.113,-14.259 8.878,-1.1882 23.238,-9.2895 30.252,-2.64 28.021,-6.6721 12.032,-7.5617 21.449,-2.1005 13.078,-3.7808 12.032,-5.4613 18.833,0.4201 9.9396,-4.621 14.125,-4.201 10.986,-2.1004 69.577,-21.845 73.762,-32.768 z"
     id="path4057" />
  <path
     style="fill:#d6a874"
     inkscape:connector-curvature="0"
     d="m 573.63,434.97 51.693,-11.143 40.387,-0.2475 34.581,-7.7111 36.353,-2.2406 0.20763,152.07 h -736.85 l 14.006,-25.612 31.638,-5.4055 51.949,-2.2444 19.236,-1.5771 29.593,-12.616 20.715,-1.577 28.113,-9.4617 8.878,-0.7887 23.238,-6.1644 30.252,-1.7519 28.021,-4.4275 12.032,-5.0179 21.449,-1.3939 13.078,-2.509 12.032,-3.624 18.833,0.2787 9.9396,-3.0663 14.125,-2.7879 10.986,-1.3937 69.577,-14.496 73.762,-21.744 z"
     id="path4059" />
  <path
     style="fill:#d7f4ee"
     inkscape:connector-curvature="0"
     d="m 0,518.57 95.212,-11.056 -26.653,11.32 120.74,-11.32 -11.265,11.32 181.6,-11.32 c 0,0 -27.087,11.32 -6.7944,11.32 21.851,0 132.69,-11.32 132.69,-11.32 0,0 -4.5272,10.89 -2.7367,10.799 l 172.17,-8.7154 -10.648,10.013 92.543,-0.6962 v 38.998 c -228.15,0.8818 -495.88,7.8201 -736.85,7.7587 z"
     id="rect3789" />
  <path
     style="fill:#00aa88"
     inkscape:connector-curvature="0"
     d="m 0.43,524.57 95.701,-11.32 -26.653,11.32 120.74,-11.32 -9.7019,11.841 180.03,-11.841 c 0,0 -9.3673,11.539 -6.7944,11.32 l 132.69,-11.32 -11.071,10.278 165.92,-10.799 -12.732,14.18 108.29,-1.3261 v 39.852 c -244.62,0.8123 -491.52,-2.0814 -736.42,-2.0814 -0.23917,0 -0.43172,-0.12 -0.43172,-0.269 v -38.246 c 0,-0.149 0.19255,-0.269 0.43172,-0.269 z"
     id="path3792" />
  <path
     style="fill:#008a6e"
     inkscape:connector-curvature="0"
     d="m 0.43,539.17 95.701,-7.0684 -26.653,7.0684 120.74,-7.0684 c 0,0 -16.02,9.2851 -13.348,9.1519 l 183.68,-9.1519 c 0,0 -6.4607,7.0684 -6.7944,7.0684 l 132.69,-7.0684 c 0,0 -12.63,7.1831 -10.55,7.0684 l 149.77,-13.319 -8.5645,11.916 119.75,1.4024 v 26.494 c -244.76,0.3819 -491.93,0.037 -736.85,0.037 v -26.364 c 0,-0.093 0.19255,-0.168 0.43172,-0.168 z"
     id="path3981" />
  <g
     transform="matrix(0.50662,0,0,0.50662,351.06,-135.09)"
     id="g4024">
    <g
       transform="matrix(1.1823,0,0,1.106,-38.078,-102.91)"
       id="g4000">
      <path
         style="fill:#905a41"
         inkscape:connector-curvature="0"
         d="m 390.71,835.93 -15.71,32.86 35,1.4286 25.714,-30 z"
         id="path2987" />
      <path
         style="fill:#9b5e43"
         inkscape:connector-curvature="0"
         transform="translate(0,652.36)"
         d="M 296.38,230.03 255,172.14 l 6.454,-14.235 78.362,-8.1022 58.041,-0.51995 -7.86,26.36 -20.577,-2.107 -19.653,0.29586 -34.592,10.678 29.245,37.337 z"
         id="path3007" />
      <path
         style="fill:#9b5e43"
         inkscape:connector-curvature="0"
         d="m 395.11,784.68 -8.7678,52.52 5.6731,16.753 24.019,4.8341 18.87,-10 26.678,-50 -17.568,-26.429 -29.932,-2.8571 z"
         id="path2985" />
      <path
         style="fill:#9b5e43"
         inkscape:connector-curvature="0"
         transform="translate(0,652.36)"
         d="m 459.29,206.43 -167.3,15.59 -42.7,32.98 -22.857,13.571 -40,3.5714 72.857,60 155.4,-52.02 37.582,-39.25 z"
         id="path2989" />
      <path
         style="fill:#7d4c36"
         inkscape:connector-curvature="0"
         transform="translate(0,652.36)"
         d="m 496.86,134.84 -0.48404,17.388 -21.378,12.056 z"
         id="path2995" />
      <path
         style="fill:#241c1c"
         inkscape:connector-curvature="0"
         d="m 391.12,804.95 6.5718,-18.879 18.292,-10.298 24.907,4.7475 10.304,24.861 -3.9109,18.688 0.23005,3.0305 15.644,-30.81 -9.4691,-25.835 -34.133,-9.4336 -18.477,9.6525 -10.164,19.402 z"
         id="path3011" />
      <path
         style="fill:#9b5e43"
         inkscape:connector-curvature="0"
         transform="translate(0,652.36)"
         d="m 412.14,217.86 11.04,-27.956 17.531,-13.967 27.75,-53.582 10.822,-5.2092 14.286,5 3.5714,16.429 -49.286,90 z"
         id="path2991" />
      <path
         style="fill:#9b5e43"
         inkscape:connector-curvature="0"
         transform="translate(0,652.36)"
         d="m 76.429,265.71 -6.089,50.99 -23.678,30.66 -40.948,91.93 3.5717,28.57 -88.572,29.28 3.572,-12.14 14.285,-6.43 42.143,-48.57 57.158,-188.15 14.135,-22.96 9.4214,4.6831 z"
         id="path3005" />
      <path
         style="fill:#8d1530"
         inkscape:connector-curvature="0"
         transform="translate(0,652.36)"
         d="M 220.36,292.14 187.14,270 53.19,219.29 72.648,283.5 160,324.29 Z"
         id="path2999" />
      <path
         style="fill:#9b5e43"
         inkscape:connector-curvature="0"
         transform="translate(0,652.36)"
         d="m 136.43,404.29 -127.86,80.714 -35,35 3.5714,-50 40,-14.286 94.289,-85.71 z"
         id="path3001" />
      <path
         style="fill:#840226"
         inkscape:connector-curvature="0"
         d="m 264.29,983.08 c -47.552,22.798 -93.28,49.542 -136.43,80 l -15.909,-24.831 -13.377,-7.3121 60.714,-78.745 60.959,-7.6838 z"
         id="path2997" />
      <path
         style="fill:#af6a4b"
         inkscape:connector-curvature="0"
         transform="translate(0,652.36)"
         d="m -14.286,502.14 -5,-32.857 -14.286,-13.571 -7.8571,-17.143 -8.5714,2.8572 -5,26.429 10,25.714 c 0,0 -7.8214,17.356 -7.8571,21.429 l 16.429,12.857 13.571,-9.2857 z"
         id="path3003" />
      <path
         style="fill:#674636"
         inkscape:connector-curvature="0"
         transform="translate(0,652.36)"
         d="m 417.19,229.28 -39.396,10.102 12.122,13.132 30.305,-14.142 z"
         id="path3781" />
      <path
         style="fill:#674636"
         inkscape:connector-curvature="0"
         transform="translate(0,652.36)"
         d="m 336.89,226.76 8.5863,-1.5152 5.5558,3.0305 -20.203,3.5355 z"
         id="path3783" />
      <path
         style="fill:#292420"
         inkscape:connector-curvature="0"
         d="m 396.19,806.01 16.331,-1.7678 0.50508,7.071 -10.102,1.5994 c -2.9182,-3.0585 1.1135,-0.5578 -6.7344,-6.9027 z"
         id="rect3987" />
      <path
         style="fill:#292420"
         inkscape:connector-curvature="0"
         d="m 444.05,815.1 -17.971,-8.5426 -1.6656,7.1306 5.5512,4.783 z"
         id="path3990" />
      <path
         style="fill:#241f1c"
         inkscape:connector-curvature="0"
         transform="translate(0,652.36)"
         d="m 406.89,173.65 c 0,0 4.3363,4.0015 2.8698,5.6541 l 9.7037,0.6123 z"
         id="path3992" />
      <path
         style="fill:#5f2424"
         inkscape:connector-curvature="0"
         transform="translate(0,652.36)"
         d="m 400.53,187.11 5.0508,-0.50508 8.8388,2.0203 7.0711,4.0406 -8.5863,1.7678 -8.5863,-1.2627 z"
         id="path3994" />
    </g>
    <g
       transform="matrix(0.94397,0,0,1,23.779,0)"
       id="g4020">
      <path
         style="fill:#8d5840"
         inkscape:connector-curvature="0"
         d="m 424.36,787.73 -1.8277,-2.6733 -2.4679,2.6374 -2.9948,12.362 2.9736,6.7192 2.5335,-3.5818 z"
         id="path3009" />
      <path
         style="fill:#674636"
         inkscape:connector-curvature="0"
         d="m 424.33,791.18 -1.7426,-2.013 -1.777,3.9746 -1.1006,6.9049 2.0236,2.4459 1.7349,-1.952 z"
         id="path3983" />
    </g>
  </g>
  <metadata
     id="metadata104">
    <rdf:RDF>
      <cc:Work>
        <dc:format>image/svg+xml</dc:format>
        <dc:type
           rdf:resource="http://purl.org/dc/dcmitype/StillImage" />
        <cc:license
           rdf:resource="http://creativecommons.org/licenses/publicdomain/" />
        <dc:publisher>
          <cc:Agent
             rdf:about="http://openclipart.org/">
            <dc:title>Openclipart</dc:title>
          </cc:Agent>
        </dc:publisher>
        <dc:title>man under palm trees</dc:title>
        <dc:date>2013-07-26T16:46:17</dc:date>
        <dc:description>A man sitting under some palm trees relaxing</dc:description>
        <dc:source>https://openclipart.org/detail/181192/man-under-palm-trees-by-olku-181192</dc:source>
        <dc:creator>
          <cc:Agent>
            <dc:title>OlKu</dc:title>
          </cc:Agent>
        </dc:creator>
        <dc:subject>
          <rdf:Bag>
            <rdf:li>man</rdf:li>
            <rdf:li>palm trees</rdf:li>
            <rdf:li>sea</rdf:li>
            <rdf:li>vacation</rdf:li>
          </rdf:Bag>
        </dc:subject>
      </cc:Work>
      <cc:License
         rdf:about="http://creativecommons.org/licenses/publicdomain/">
        <cc:permits
           rdf:resource="http://creativecommons.org/ns#Reproduction" />
        <cc:permits
           rdf:resource="http://creativecommons.org/ns#Distribution" />
        <cc:permits
           rdf:resource="http://creativecommons.org/ns#DerivativeWorks" />
      </cc:License>
    </rdf:RDF>
  </metadata>
</svg>
